<svg xmlns="http://www.w3.org/2000/svg" viewBox="0 0 320 100"><path fill="#1434CB" d="M141.7 27.6l-13.6 63.8h-21.8l13.6-63.8h21.8zm63.4 16.5c-.3-5-4.4-10.2-12.8-10.4-14.5-.4-24.7 7.7-24.8 18.7-.2 8 7.3 12.5 12.9 15.2 5.7 2.7 7.7 4.5 7.6 6.9-.1 3.7-4.6 5.4-8.8 5.4-7.4 0-11.4-1.1-17.5-3.8l-2.4-1.1-3 18.2c4.3 2 12.3 3.7 20.6 3.8 15.6 0 25.7-7.5 25.9-19.1.2-6.4-3.8-11.3-12.2-15.2-5.2-2.6-8.3-4.3-8.3-6.9 0-2.4 2.8-5 8.5-5 4.8-.1 8.3.9 11.2 2.1l1.6.7 2.5-16zm57.2 47.3h19L262.1 27.6h-17.3c-3.3 0-6.1 1.9-7.4 4.8l-30.2 70.8h22.8l4.5-12.6h27.9l2.7 12.6zm-17.5-30.2l11.4-31.2 6.5 31.2h-17.9zM98.9 27.6L82.1 72.8l-1.8-8.9C76.5 54.3 62 40 42.6 33.3l7 58.1h22l20.4-63.8H98.9zm-59.5 0H1.5L0 34.6c15.2 3.9 31.8 10.9 41.3 20l-6.9-27z"/></svg>
